<svg width="24" height="24" viewBox="0 0 24 24" fill="none" xmlns="http://www.w3.org/2000/svg">
<rect width="24" height="24" rx="6" fill="#E5E9EB"/>
<path fill-rule="evenodd" clip-rule="evenodd" d="M7.625 7C6.92881 7 6.26113 7.27656 5.76884 7.76884C5.27656 8.26113 5 8.92881 5 9.625V14.875C5 15.5712 5.27656 16.2389 5.76884 16.7312C6.26113 17.2234 6.92881 17.5 7.625 17.5H16.375C17.0712 17.5 17.7389 17.2234 18.2312 16.7312C18.7234 16.2389 19 15.5712 19 14.875V9.625C19 8.92881 18.7234 8.26113 18.2312 7.76884C17.7389 7.27656 17.0712 7 16.375 7H7.625ZM6.75 14.875V14H11.125V15.75H7.625C7.39294 15.75 7.17038 15.6578 7.00628 15.4937C6.84219 15.3296 6.75 15.1071 6.75 14.875ZM12.875 15.75H16.375C16.6071 15.75 16.8296 15.6578 16.9937 15.4937C17.1578 15.3296 17.25 15.1071 17.25 14.875V14H12.875V15.75ZM12.875 12.25H17.25V10.5H12.875V12.25ZM11.125 10.5H6.75V12.25H11.125V10.5Z" fill="black"/>
</svg>
