<svg width="16" height="14" viewBox="0 0 16 14" fill="none" xmlns="http://www.w3.org/2000/svg">
<path d="M15.8137 6.42163C15.5708 6.0293 15.1411 5.79517 14.6643 5.79517H13.4741V3.61194C13.4741 3.08496 13.0295 2.65637 12.4832 2.65637H6.65686C6.64831 2.65637 6.64258 2.65393 6.64026 2.65247L5.59753 1.19409C5.4126 0.935547 5.10767 0.78125 4.78174 0.78125H0.990967C0.444458 0.78125 0 1.20996 0 1.73682V12.2102C0 12.7495 0.455322 13.1884 1.01514 13.1884H12.8077C12.9915 13.1884 13.1501 13.0823 13.2269 12.9283L13.2273 12.9285L15.8699 7.62097C16.0615 7.23633 16.0404 6.78796 15.8137 6.42163ZM0.990967 1.71875H4.78174C4.80981 1.71875 4.82886 1.73108 4.83484 1.7395L5.87915 3.19995C6.05542 3.44653 6.34619 3.59387 6.65686 3.59387H12.4832C12.5159 3.59387 12.5325 3.60925 12.5366 3.61475V5.79517H4.0531C3.52698 5.79517 3.04846 6.09167 2.83398 6.55066L0.9375 10.6091V1.73962C0.94165 1.73413 0.958252 1.71875 0.990967 1.71875ZM15.0306 7.20312L12.5175 12.2507H1.2052L3.68335 6.94763C3.74341 6.81909 3.89209 6.73267 4.0531 6.73267H14.6643C14.8141 6.73267 14.9458 6.8009 15.0166 6.91516C15.0564 6.97949 15.0911 7.08166 15.0306 7.20312Z" fill="#84919A"/>
</svg>
