<svg width="307" height="104" viewBox="0 0 307 104" fill="none" xmlns="http://www.w3.org/2000/svg">
<path d="M25.12 0.911997V61.392C25.12 67.44 26.608 72.096 29.584 75.36C32.56 78.624 36.928 80.256 42.688 80.256C48.448 80.256 52.864 78.624 55.936 75.36C59.008 72.096 60.544 67.44 60.544 61.392V0.911997H85.168V61.248C85.168 70.272 83.248 77.904 79.408 84.144C75.568 90.384 70.384 95.088 63.856 98.256C57.424 101.424 50.224 103.008 42.256 103.008C34.288 103.008 27.136 101.472 20.8 98.4C14.56 95.232 9.616 90.528 5.968 84.288C2.32 77.952 0.496001 70.272 0.496001 61.248V0.911997H25.12ZM179.499 33.456C179.499 39.312 178.155 44.688 175.467 49.584C172.779 54.384 168.651 58.272 163.083 61.248C157.515 64.224 150.603 65.712 142.347 65.712H127.083V102H102.459V0.911997H142.347C150.411 0.911997 157.227 2.304 162.795 5.08799C168.363 7.87199 172.539 11.712 175.323 16.608C178.107 21.504 179.499 27.12 179.499 33.456ZM140.475 46.128C145.179 46.128 148.683 45.024 150.987 42.816C153.291 40.608 154.443 37.488 154.443 33.456C154.443 29.424 153.291 26.304 150.987 24.096C148.683 21.888 145.179 20.784 140.475 20.784H127.083V46.128H140.475ZM306.799 0.911997V102H282.175V41.376L259.567 102H239.695L216.943 41.232V102H192.319V0.911997H221.407L249.775 70.896L277.855 0.911997H306.799Z" fill="url(#paint0_linear_1184_55342)"/>
<defs>
<linearGradient id="paint0_linear_1184_55342" x1="-8" y1="132" x2="334.616" y2="47.3276" gradientUnits="userSpaceOnUse">
<stop stop-color="#0452C8"/>
<stop offset="1" stop-color="#4094F7"/>
</linearGradient>
</defs>
</svg>
