<svg width="24" height="24" viewBox="0 0 24 24" fill="none" xmlns="http://www.w3.org/2000/svg">
<rect width="24" height="24" rx="6" fill="#E5E9EB"/>
<path d="M17.3958 7H6.60417C5.71925 7 5 7.71925 5 8.60417V15.8958C5 16.7807 5.71925 17.5 6.60417 17.5H17.3958C18.2807 17.5 19 16.7807 19 15.8958V8.60417C19 7.71925 18.2807 7 17.3958 7ZM9.375 9.33333C10.1788 9.33333 10.8333 9.98783 10.8333 10.7917C10.8333 11.5955 10.1788 12.25 9.375 12.25C8.57117 12.25 7.91667 11.5955 7.91667 10.7917C7.91667 9.98783 8.57117 9.33333 9.375 9.33333ZM12 14.7292C12 14.9707 11.804 15.1667 11.5625 15.1667H7.1875C6.946 15.1667 6.75 14.9707 6.75 14.7292V14.4375C6.75 13.5526 7.46925 12.8333 8.35417 12.8333H10.3958C11.2807 12.8333 12 13.5526 12 14.4375V14.7292ZM16.8125 15.1667H13.6042C13.3627 15.1667 13.1667 14.9707 13.1667 14.7292C13.1667 14.4877 13.3627 14.2917 13.6042 14.2917H16.8125C17.054 14.2917 17.25 14.4877 17.25 14.7292C17.25 14.9707 17.054 15.1667 16.8125 15.1667ZM16.8125 12.8333H13.6042C13.3627 12.8333 13.1667 12.6373 13.1667 12.3958C13.1667 12.1543 13.3627 11.9583 13.6042 11.9583H16.8125C17.054 11.9583 17.25 12.1543 17.25 12.3958C17.25 12.6373 17.054 12.8333 16.8125 12.8333ZM16.8125 10.5H13.6042C13.3627 10.5 13.1667 10.304 13.1667 10.0625C13.1667 9.821 13.3627 9.625 13.6042 9.625H16.8125C17.054 9.625 17.25 9.821 17.25 10.0625C17.25 10.304 17.054 10.5 16.8125 10.5Z" fill="black"/>
</svg>
