<svg width="14" height="14" viewBox="0 0 14 14" fill="none" xmlns="http://www.w3.org/2000/svg">
<path d="M12.7496 4.19961C12.6303 4.19961 12.5158 4.24702 12.4314 4.33141C12.347 4.4158 12.2996 4.53026 12.2996 4.64961V11.8496C12.2996 11.969 12.2522 12.0834 12.1678 12.1678C12.0834 12.2522 11.969 12.2996 11.8496 12.2996H1.94961C1.83026 12.2996 1.7158 12.2522 1.63141 12.1678C1.54702 12.0834 1.49961 11.969 1.49961 11.8496V1.94961C1.49961 1.83026 1.54702 1.7158 1.63141 1.63141C1.7158 1.54702 1.83026 1.49961 1.94961 1.49961H9.14961C9.26896 1.49961 9.38342 1.4522 9.46781 1.36781C9.5522 1.28342 9.59961 1.16896 9.59961 1.04961C9.59961 0.930262 9.5522 0.815803 9.46781 0.731411C9.38342 0.64702 9.26896 0.599609 9.14961 0.599609H1.94961C1.59157 0.599609 1.24819 0.741841 0.995015 0.995015C0.741841 1.24819 0.599609 1.59157 0.599609 1.94961V11.8496C0.599609 12.2077 0.741841 12.551 0.995015 12.8042C1.24819 13.0574 1.59157 13.1996 1.94961 13.1996H11.8496C12.2077 13.1996 12.551 13.0574 12.8042 12.8042C13.0574 12.551 13.1996 12.2077 13.1996 11.8496V4.64961C13.1996 4.53026 13.1522 4.4158 13.0678 4.33141C12.9834 4.24702 12.869 4.19961 12.7496 4.19961Z" fill="#6F7B8F" stroke="#6F7B8F" stroke-width="0.4"/>
<path d="M3.619 4.78159C3.53426 4.69685 3.41933 4.64925 3.2995 4.64925C3.17966 4.64925 3.06473 4.69685 2.98 4.78159C2.89526 4.86633 2.84766 4.98126 2.84766 5.10109C2.84766 5.16043 2.85934 5.21918 2.88205 5.274C2.90476 5.32882 2.93804 5.37863 2.98 5.42059L6.58 9.02059C6.62205 9.0623 6.67191 9.09529 6.72674 9.11769C6.78157 9.14008 6.84027 9.15143 6.8995 9.15109H6.931C6.99433 9.14636 7.05594 9.12827 7.11178 9.09802C7.16763 9.06778 7.21643 9.02605 7.255 8.97559L13.105 1.32559C13.1693 1.23079 13.195 1.11503 13.1769 1.00193C13.1588 0.888822 13.0982 0.786876 13.0076 0.716871C12.9169 0.646865 12.803 0.614068 12.6889 0.625165C12.5749 0.636261 12.4695 0.690416 12.394 0.776592L6.8545 8.02159L3.619 4.78159Z" fill="#6F7B8F" stroke="#6F7B8F" stroke-width="0.4"/>
</svg>
