<?xml version="1.0" standalone="no"?>
<!DOCTYPE svg PUBLIC "-//W3C//DTD SVG 20010904//EN"
 "http://www.w3.org/TR/2001/REC-SVG-20010904/DTD/svg10.dtd">
<svg version="1.0" xmlns="http://www.w3.org/2000/svg"
 width="2048.000000pt" height="2048.000000pt" viewBox="0 0 2048.000000 2048.000000"
 preserveAspectRatio="xMidYMid meet">

<g transform="translate(0.000000,2048.000000) scale(0.100000,-0.100000)"
fill="#000000" stroke="none">
<path d="M0 10240 l0 -10240 10240 0 10240 0 0 10240 0 10240 -10240 0 -10240
0 0 -10240z m8123 3938 c2 -1897 6 -2481 15 -2543 85 -545 260 -926 577 -1254
118 -122 205 -195 335 -281 822 -540 1961 -443 2664 229 32 31 92 97 134 146
304 362 471 816 502 1363 6 106 10 1110 10 2490 l0 2312 1180 0 1181 0 -4
-2597 c-4 -2788 -1 -2647 -52 -2997 -239 -1637 -1296 -2884 -2882 -3400 -509
-165 -993 -240 -1553 -239 -764 1 -1455 155 -2115 472 -1268 610 -2090 1735
-2300 3151 -51 343 -48 169 -52 2988 l-4 2622 1181 0 1180 0 3 -2462z m6207
-9173 l0 -1165 -4090 0 -4090 0 0 1165 0 1165 4090 0 4090 0 0 -1165z"/>
</g>
</svg>
